<?xml version="1.0" standalone="no"?>
<!DOCTYPE svg PUBLIC "-//W3C//DTD SVG 20010904//EN"
 "http://www.w3.org/TR/2001/REC-SVG-20010904/DTD/svg10.dtd">
<svg version="1.0" xmlns="http://www.w3.org/2000/svg"
 width="225.000000pt" height="225.000000pt" viewBox="0 0 225.000000 225.000000"
 preserveAspectRatio="xMidYMid meet">

<g transform="translate(0.000000,225.000000) scale(0.100000,-0.100000)"
fill="#000000" stroke="none">
<path d="M70 1733 c-55 -20 -83 -89 -57 -139 26 -48 1058 -1072 1089 -1079 15
-4 37 -4 50 0 28 8 1063 1038 1085 1079 40 76 -37 164 -120 137 -22 -8 -181
-160 -512 -491 l-480 -480 -480 480 c-264 263 -493 484 -508 490 -31 11 -44
11 -67 3z"/>
</g>
</svg>
